<svg xmlns="http://www.w3.org/2000/svg" xmlns:xlink="http://www.w3.org/1999/xlink" width="800" height="300" viewBox="0 0 800 300"><defs><style>.cls-1{fill:none;}.cls-2{fill:#cfe8e3;}.cls-3{clip-path:url(#clip-path);}.cls-4{opacity:0.3;}.cls-5{fill:#82bab5;stroke:#cfe8e3;stroke-miterlimit:10;stroke-width:2.5px;}.cls-6{fill:#35bdb7;}.cls-7{fill:#365254;}.cls-8{fill:#ed7024;}.cls-9{fill:#fff;}</style><clipPath id="clip-path"><rect class="cls-1" y="0.137" width="800.555" height="299.863"/></clipPath></defs><title>22024-website</title><g id="design"><rect class="cls-2" x="-0.252" y="0.137" width="800.806" height="299.863"/><g class="cls-3"><g class="cls-4"><polygon class="cls-5" points="23.569 258.799 25.407 260.972 33.452 266.534 29.422 270.558 34.53 275.193 34.066 278.733 41.499 291.415 96.627 303.614 117.996 306.397 116.918 284.759 110.712 274.098 102.667 258.654 100.658 247.53 86.874 232.549 86.874 219.868 107.312 140.458 89.976 134.581 46.776 120.38 12.55 104.62 -10.825 92.865 -12.386 108.939 4.968 105.38 8.834 153.436 18.273 168.584 13.628 180.783 8.368 181.562 6.826 187.589 1.401 185.104 4.968 192.223 1.401 202.568 2.944 205.35 -0.141 209.986 3.259 210.765 9.446 206.129 13.628 212.303 7.292 217.55 8.368 227.747 9.446 245.991 15.949 252.166 21.375 254.63 23.569 258.799"/><polygon class="cls-5" points="52.963 -40.459 -24 77.735 -15.47 82.057 -11.753 80.981 -10.779 92.922 17.195 106.938 47.703 120.528 58.074 124.235 88.879 134.285 87.95 117.432 75.408 112.797 69.686 65.054 64.111 45.291 66.583 30.922 62.253 25.657 65.356 16.385 59.466 10.99 67.214 -17.136 61.79 -32.433 52.963 -40.459"/><polygon class="cls-5" points="503.101 81.297 500.759 93.977 510.051 96.574 512.392 102.766 519.193 105.102 523.986 120.082 530.974 119.304 531.567 127.35 548.142 143.258 551.264 155.162 540.857 156.682 528.967 155.162 526.625 155.162 526.18 160.39 521.684 160.39 522.464 164.58 523.986 170.921 540.114 192.241 543.646 189.277 551.709 196.098 560.554 193.169 568.284 196.544 563.637 177.224 562.078 171.663 567.802 174.926 567.802 183.565 574.489 184.345 623.246 152.825 629.451 159.018 633.317 151.602 630.232 144.78 622.168 131.986 612.878 131.356 597.532 132.728 598.943 123.939 589.018 126.573 575.418 132.728 572.148 126.573 567.354 128.092 559.291 125.497 552.488 125.015 554.349 118.526 551.264 114.669 542.718 110.812 541.342 106.622 534.689 106.176 532.05 98.131 519.193 93.198 508.827 84.374 503.101 81.297"/><polygon class="cls-5" points="638.038 149.758 636.96 156.394 632.018 163.96 631.236 174.49 638.038 188.693 638.038 195.959 642.832 201.375 638.038 203.227 636.96 214.352 639.597 216.651 641.902 215.873 640.527 222.845 648.554 228.258 662.342 215.873 670.553 210.941 671.334 204.599 675.495 209.385 677.056 203.227 681.256 203.969 678.134 210.941 675.051 215.873 671.334 215.873 677.056 219.729 681.999 218.987 680.923 215.095 685.121 212.497 690.993 197.482 698.128 205.528 708.495 205.528 700.915 189.47 697.496 192.104 697.496 184.057 690.065 187.914 690.065 180.053 688.502 177.865 683.115 182.501 681.999 186.689 677.688 180.053 679.993 175.233 670.553 176.011 670.553 172.932 662.824 174.49 665.907 179.274 657.102 184.057 656.174 180.053 649.967 179.274 649.967 184.057 645.471 176.938 645.471 160.251 640.527 160.251 641.902 155.172 638.038 149.758"/><polygon class="cls-5" points="582.516 248.79 588.24 252.648 591.212 248.79 598.162 246.455 596.786 256.503 601.728 262.511 614.735 264.846 613.659 274.116 609.793 272.56 604.813 275.676 603.587 283.683 599.386 281.533 598.162 288.319 589.018 292.509 584.079 291.731 571.704 268.703 566.574 268.703 567.354 259.137 564.717 255.279 582.516 248.79"/><polygon class="cls-5" points="606.671 254.167 606.226 258.359 612.395 262.511 619.083 262.994 622.168 259.913 625.884 259.913 625.884 255.279 619.083 258.359 612.878 258.359 606.671 254.167"/><polygon class="cls-5" points="614.735 264.846 620.161 266.849 627.594 261.434 631.31 261.434 632.536 258.359 637.812 258.359 635.619 233.772 641.047 232.252 645.691 244.154 652.976 244.601 648.18 252.166 643.239 258.359 648.626 259.137 641.826 266.849 634.097 268.703 633.317 277.526 625.253 283.683 625.253 289.098 619.677 299.777 621.685 307.489 613.657 305.154 604.367 301.001 609.311 285.538 621.24 277.526 624.027 271.781 613.657 274.116 614.735 264.846"/><polygon class="cls-5" points="26.752 265.134 25.591 270.757 28.447 276.736 33.445 284.948 34.066 296.051 27.562 294.957 11.937 274.098 13.628 271.317 0.937 259.581 3.259 256.338 0.937 252.628 2.944 247.53 10.228 252.628 19.969 261.207 26.752 265.134"/><polygon class="cls-5" points="340.187 190.388 302.875 250.793 303.358 307.636 308.783 305.636 308.3 303.001 312.501 299.443 316.366 305.154 319.447 308.417 315.881 311.345 312.946 307.193 310.642 313.348 324.392 318.318 327.662 313.978 338.326 320.319 365.604 318.761 366.049 312.571 375.674 310.567 375.674 307.193 388.05 304.413 399.495 313.348 401.055 319.54 404.921 313.978 409.269 313.978 408.488 318.761 412.985 318.761 417.297 331.295 444.238 329.886 425.842 334.373 427.701 336.858 442.714 336.078 451.523 337.598 448.438 329.886 462.224 329.886 470.735 339.303 473.521 339.788 470.735 347.499 458.172 345.498 456.165 339.788 452.004 339.788 455.089 347.499 454.309 361.256 452.004 380.872 453.863 384.284 448.438 385.805 447.656 390.44 452.786 394 456.165 389.364 455.722 385.062 467.65 379.315 477.684 378.574 478.799 373.16 490.691 368.971 488.089 361.256 482.032 363.554 478.168 364.336 481.103 357.845 488.534 350.911 494.591 348.724 502.47 350.132 502.024 345.498 504.626 341.309 513.469 336.858 524.619 321.098 522.464 316.759 507.746 324.028 493.961 320.172 474.897 318.614 467.65 311.049 462.374 305.932 445.019 252.166 437.736 252.166 421.198 234.884 418.409 234.256 414.509 221.127 410.345 213.861 408.006 202.736 388.05 203.366 373.632 203.366 361.108 198.546 360.177 195.321 340.187 190.388"/><polygon class="cls-5" points="407.56 89.341 405.219 101.986 411.906 110.812 411.906 119.304 418.076 119.304 421.793 127.35 419.935 136.138 415.437 137.696 411.906 140.921 416.552 139.995 417.297 144.037 415.437 147.263 428.927 151.12 433.423 159.018 446.879 173.368 439.147 195.468 432.161 196.544 431.081 205.035 436.992 213.861 446.43 229.917 445.019 235.331 450.741 240.745 445.019 252.166 462.374 305.932 474.599 318.614 494.591 320.319 507.414 324.176 522.464 317.056 524.619 321.098 557.916 309.973 558.695 298.221 556.206 281.533 561.147 270.261 566.574 268.703 567.354 259.137 564.717 255.279 582.516 248.79 583.148 244.601 589.651 244.601 597.532 234.551 591.955 227.284 580.809 226.541 558.695 253.723 548.623 282.163 552.007 254.167 553.123 244.154 562.078 237.665 565.943 223.132 573.226 220.051 576.161 216.16 618.303 192.983 621.685 170.921 627.594 165.359 629.451 159.018 623.246 152.825 574.304 184.345 567.802 183.565 567.802 174.926 562.078 171.513 564.269 181.266 568.284 196.544 560.554 193.169 552.007 195.764 543.646 189.277 540.114 191.907 532.83 182.639 523.986 170.921 521.536 160.39 526.18 160.39 526.625 155.162 541.342 156.682 551.56 155.162 548.142 143.258 531.567 127.35 531.272 119.304 523.986 120.082 519.193 105.102 512.392 102.766 510.051 96.278 500.759 93.977 506.187 103.545 509.271 112.035 499.387 123.456 488.384 117.747 483.889 120.862 480.323 120.082 481.586 112.035 476.16 112.035 472.294 90.083 468.579 90.568 466.238 94.72 455.722 93.977 452.004 90.083 445.797 87.489 443.941 83.595 424.913 82.073 429.559 85.153 428.444 87.489 417.297 87.489 407.56 89.341"/><polygon class="cls-5" points="192.309 16.218 199.092 11.22 202.876 7.101 214.946 -27.915 221.582 -22.516 220.689 -38.759 229.796 -31.968 228.552 -23.94 233.661 0.163 250.531 9.434 249.769 15.626 241.409 16.385 236.301 21.8 240.63 21.8 246.054 21.022 247.449 34.464 242.952 29.532 226.08 25.657 222.512 20.261 193.563 30.605 188.56 28.892 185.225 26.887 181.123 22.526 182.79 17.289 179.457 14.433 172.793 13.601 168.39 8.842 181.242 8.96 192.309 16.218"/><path class="cls-5" d="M242.51,132.714,241.377,156.5l53.738-6.391,9.211-33.948,12.707-8.806-4.962-6.192-5.258-1.54V95.77l10.22,3.079,14.7-8.641,3.882-15.462-13-3.08-7.75-3.875,2.637-3.855,7.731,5.877,10.385-.777,4.648-16.224,4.179,1.539,1.227-3.855,5.276-3.858v4.635h3.251l7.267-11.588V31.639l-6.653-6.026L350.943,7.072l-8.526-3.856L328.946,7.072l2.785,23.176-2.323,4.634v5.563L325.691,42l-5.4-9.119L320.9,23.3,310.214,12.949l-.464,8.029-5.424-1.538L301.7,11.708l-4.962-1.854L297.988.119,279.872-15.638,269.485-5.274l.634,5.857-.634,11.125,11.929,6.952-.463,3.876,3.862,4.635-.76,5.711L278.164,42l2.469,10.811-8.194-3.856-.316-8.511,3.718-8.806L273.2,18.66l-6.041-1.538-1.69-5.414-6.819,2.781-2.788,16.537,7.283,7.1L252,43.69l-24.618-9.566-4.962-7.731-8.214,3.094,7.138,4.637-6.969.758-6.5-4.634-5.426,1.391L210.194,42l-.167,12.35-5.258.777.78-10.807-12.71-7.733-2.469,2.317-6.5-1.537L172.4,36.126l-2.356,7.594,26.479,6.489,1.14,10.991,7.683,47.411,12.078,4.638,7.9,9.27c3.823,1.829,9.583,3.959,10.767,5.1Z"/><polygon class="cls-5" points="266.791 -41.849 260.918 -41.09 262.927 -44.167 257.817 -46.484 245.887 -41.09 248.991 -29.966 240.479 -32.58 242.34 -20.232 252.854 -12.965 259.675 -2.767 261.384 -12.185 265.101 -9.866 270.507 -12.185 269.43 -29.966 262.145 -29.187 266.791 -41.849"/><polygon class="cls-5" points="335.11 -56.339 330.949 -57.119 319.65 -48.627 323.22 -37.799 322.735 -31.31 326.303 -23.598 332.323 -20.668 327.381 -14.326 321.955 -14.326 324.298 -20.668 314.67 -33.942 317.309 -50.184 310.954 -50.184 300.143 -37.799 300.143 -20.668 317.793 -10.471 315.452 -7.541 322.735 2.063 329.722 2.842 332.807 -1.794 336.969 0.504 348.6 -0.274 344.401 -8.283 352.761 -1.052 360.044 -1.052 360.826 -4.129 353.246 -5.688 363.613 -7.541 357.592 -15.884 367.181 -13.697 365.955 5.92 371.677 -6.763 374.464 1.285 378.18 -1.794 381.265 4.362 390.852 2.063 391.337 8.997 397.059 8.219 399.846 12.112 406.051 9.777 411.477 18.266 408.357 37.142 412.071 42.517 406.646 48.861 393.974 50.415 390.852 58.13 394.42 69.402 403.562 70.516 413.001 60.911 406.646 54.272 415.638 58.13 423.369 58.907 437.492 65.545 439.944 69.402 453.73 75.889 456.369 70.516 482.233 72.034 485.614 67.399 480.972 60.465 457.928 54.272 474.948 55.052 488.401 59.686 480.375 41.777 473.091 36.362 450.944 27.872 450.162 20.603 441.505 14.41 461.013 17.043 464.582 22.901 474.948 24.46 473.722 -5.688 464.582 -3.647 463.652 0.504 458.375 -6.763 455.587 -3.647 446.447 -9.84 428.795 -10.471 421.697 -10.471 428.795 -22.818 418.278 -20.668 412.853 -22.818 420.286 -26.23 413.782 -32.089 409.136 -30.085 407.575 -33.942 390.852 -32.089 394.42 -39.356 374.464 -40.136 367.961 -50.184 354.024 -43.991 358.187 -40.136 354.024 -32.089 348.6 -37.02 345.515 -32.089 338.232 -37.799 338.232 -50.184 335.11 -56.339"/><polygon class="cls-5" points="387.882 11.918 380.765 17.313 388.81 26.583 393.772 22.726 392.528 13.456 387.882 11.918"/><polygon class="cls-5" points="367.592 11.918 368.056 18.092 373.632 19.631 367.592 11.918"/><polygon class="cls-5" points="346.075 57.954 349.01 61.811 346.075 65.684 364.507 69.541 384.165 81.13 379.837 84.985 364.507 82.668 355.217 97.5 341.746 94.423 342.974 74.956 341.115 61.811 346.075 57.954"/><polygon class="cls-5" points="214.946 -27.915 207.986 -30.904 212.836 -22.337 202.304 -25.194 199.092 -33.94 192.193 -33.983 194.201 -41.25 188.013 -42.028 176.697 -34.761 166.792 -25.806 169.896 -16.999 176.697 -16.999 164.47 -12.511 168.334 -4.484 172.515 -6.338 190.634 -3.705 197.916 1.709 194.201 6.03 179.484 1.709 171.29 2.468 166.329 4.026 168.122 8.811 181.242 8.96 192.309 16.218 199.569 10.745 202.876 7.101 214.946 -27.915"/><polygon class="cls-5" points="66.606 -17.926 58.56 10.199 64.747 15.614 61.663 24.885 65.993 30.13 63.522 44.499 69.749 65.206 75.587 112.867 87.897 117.364 89.002 134.33 107.31 140.406 180.222 154.216 241.416 156.503 242.51 132.714 235.542 127.153 225.323 122.519 217.425 113.249 205.347 108.611 196.524 50.209 170.045 43.72 174.225 34.914 170.51 34.153 169.432 31.373 177.477 28.741 173.612 18.692 168.801 17.152 151.78 7.882 149.921 1.709 138.606 -4.021 131.341 -1.388 134.891 -10.973 131.341 -11.733 126.695 -4.781 120.953 -19.466 114.451 -21.93 111.366 -15.442 106.257 -15.442 100.514 -13.29 90.148 -13.29 86.578 -6.801 81.787 -6.801 83.329 -16.369 84.257 -23.488 79.779 -21.93 73.276 -13.903 66.606 -17.926"/><polygon class="cls-5" points="107.312 140.458 86.557 219.868 86.904 232.452 95.384 241.819 100.658 247.53 102.667 259.896 116.918 284.759 117.996 306.397 164.764 311.81 180.39 154.216 107.312 140.458"/><polygon class="cls-5" points="180.092 154.216 164.764 311.81 214.765 315.518 246.203 314.739 241.409 156.533 214.765 155.439 180.092 154.216"/><polygon class="cls-5" points="241.409 156.533 246.203 314.424 303.656 312.421 303.19 251.089 340.351 190.368 335.245 185.883 326.416 188.348 318.356 193.762 310.157 171.663 306.275 169.66 299.94 170.903 293.269 163.782 295.126 150.044 241.409 156.533"/></g></g><circle class="cls-6" cx="653.897" cy="150.394" r="54.647"/><path class="cls-7" d="M736.9,160.246a6.742,6.742,0,0,0-6.606-1.383c-.755.244-1.464.508-2.15.762a17.126,17.126,0,0,1-6.28,1.422c-3.113-.032-7.493-1.295-9.755-3.994-1.984-2.368-2.81-6-.548-8.349,3.123-3.247,9.951-1.936,13.778-.259a4.422,4.422,0,0,0,5.876-5.579,3.5,3.5,0,0,0-2.027-2.219c-1.414-.527-3.326-.115-5.846,1.26a15.789,15.789,0,0,1-9.606,2.159,4.726,4.726,0,0,1-3.806-2.587,7.181,7.181,0,0,1,.318-6.5c2.223-4.069,7.089-5.078,9.792-5.317a20.164,20.164,0,0,1,5.08.48c2.391.425,4.864.867,6.989.123a6.756,6.756,0,0,0-4.451-12.757c-1.994.7-3.341,2.364-4.643,3.978-.267.33-.532.659-.8.976a14.412,14.412,0,0,1-6.833,4.4c-4.209,1.47-7.26,1.055-10.207-1.385a17.245,17.245,0,0,1-3.889-5.482q-.226-.431-.457-.859a33.719,33.719,0,0,0-2.339-3.578,34.995,34.995,0,0,1-2.2-3.328c-1.333-2.4-1.691-4.6-1.066-6.551.788-2.455,3.07-4.551,6.976-6.4a16.891,16.891,0,0,1,2.652-.9c1.724-.48,3.5-.977,4.763-2.435A6.741,6.741,0,1,0,698.039,89.7a20.319,20.319,0,0,0-.5,2.714,12.929,12.929,0,0,1-1.059,4.188l-.223.442c-1.149,2.278-2.451,4.862-4.766,6.035-2.945,1.49-6.013-.092-8.718-1.489-.341-.176-.677-.349-1.008-.514-1.281-.641-2.617-1.223-3.909-1.786a51.753,51.753,0,0,1-6.111-2.992c-6.316-3.816-3.54-12.337-2.539-14.858a17.813,17.813,0,0,1,2.521-4.633,16.9,16.9,0,0,1,1.332-1.381,9.261,9.261,0,0,0,2.3-2.9,6.73,6.73,0,0,0-8.78-8.911c-3.847,1.626-4.795,5.144-2.816,10.456a18.558,18.558,0,0,1,1.125,6.043,17.933,17.933,0,0,1-2.975,10.8c-1.728,2.315-5.6,3.833-8.385,2.315a5.657,5.657,0,0,1-2.579-3.712,11.909,11.909,0,0,1-.189-5.261,10.308,10.308,0,0,1,1.04-2.529,9.59,9.59,0,0,0,1.121-2.895,4.441,4.441,0,0,0-2.264-4.5,4.347,4.347,0,0,0-4.9.641,4.23,4.23,0,0,0-1.293,4.69,8.767,8.767,0,0,0,1.383,2.282,9.354,9.354,0,0,1,1.242,1.956c1.395,3.307.711,7.391-1.591,9.5-1.773,1.625-4.166,1.772-6.738.413-5.956-3.15-5.666-11.451-4.373-17.861a7.058,7.058,0,0,0-2.377-6.793,6.357,6.357,0,0,0-6.555-1.08,6.9,6.9,0,0,0-3.944,8.525c.661,1.9,2.193,3.184,3.674,4.429l.424.357c4.241,3.6,6.153,8.052,5.686,13.229-.328,3.642-3.428,5.438-6.426,7.175l-.345.2a29.111,29.111,0,0,0-3.691,2.715,23.184,23.184,0,0,1-4.744,3.274c-2.986,1.389-6.5.917-9.648-1.3a32.327,32.327,0,0,1-7.58-7.825,12.5,12.5,0,0,1-1.183-3.22,10.959,10.959,0,0,0-1.74-4.11,6.492,6.492,0,0,0-6.908-2.172,6.642,6.642,0,0,0-4.95,5.51,6.828,6.828,0,0,0,2.282,6.044,6.723,6.723,0,0,0,4,1.481c.407.054.829.11,1.271.191a20.827,20.827,0,0,1,5.5,1.9c3.307,1.72,8.705,6.056,9.792,9.905.784,2.778-.737,6.806-3.069,8.132-3.316,1.884-6.886-2.458-9.018-5.053-.289-.349-.555-.673-.795-.952a4.4,4.4,0,0,0-6.174-.762,4.506,4.506,0,0,0-1.445,4.68c.894,2.991,3.9,3.03,6.314,3.062,2.859.037,4.516.4,6.77,2.42a4.52,4.52,0,0,1,1.483,4.33,7.51,7.51,0,0,1-4.428,5.348c-2.55,1.029-5.432.608-8.165.088a17.938,17.938,0,0,1-7.116-2.827,16.349,16.349,0,0,1-2.008-1.8,8.464,8.464,0,0,0-4.4-2.823,6.852,6.852,0,0,0-7.9,7.891,6.98,6.98,0,0,0,6.481,5.5c.058,0,.115,0,.171,0a12.612,12.612,0,0,0,4.763-1.262,13.106,13.106,0,0,1,4.33-1.229c3.534-.164,8.482.5,11.8,2.839a7.7,7.7,0,0,1,2.944,6.232c.083,2.837.33,5.707.568,8.483q.087,1,.171,2l.035.425c.227,2.665.423,4.966-1.293,7.169-2.988,3.834-8.875,5.2-13.075,4.84a15.6,15.6,0,0,1-2.717-.559,8.387,8.387,0,0,0-5.171-.25,6.9,6.9,0,0,0-4.524,6.11,6.824,6.824,0,0,0,8.975,6.649c1.872-.653,3.007-2.152,4.1-3.6a20.488,20.488,0,0,1,1.558-1.894,15.763,15.763,0,0,1,10.851-4.878h.073a9.011,9.011,0,0,1,6.256,2.645,5.4,5.4,0,0,1,1.539,4.073c-.136,2.317-1.937,3.726-3.77,4.972-2.34,1.592-5.262,2.256-8.089,2.9q-.518.117-1.023.235a4.427,4.427,0,0,0-3.174,2.961,4.5,4.5,0,0,0,2.3,5.26c3.318,1.6,5.041-1.279,6.425-3.592l.061-.1c2.169-3.628,5.249-6.18,8.449-7a4.369,4.369,0,0,1,4.8,1.44c2,2.476,2.011,6.78.773,9.244-2.506,4.988-7.529,9.4-12.216,10.727-3.136.888-6.122,2.208-6.724,5.813a6.75,6.75,0,0,0,9.88,7.043c2.571-1.373,3.1-4.061,3.606-6.661a21.244,21.244,0,0,1,.72-2.954,22.513,22.513,0,0,1,4.151-6.967c1.664-1.965,7.524-8.11,13.156-4.63,2.626,1.621,2.671,4.589,1.838,6.826-1,2.679-2.7,4.323-5.309,6.255-2.441,1.811-3.116,3.947-1.9,6.016a4.556,4.556,0,0,0,2.876,2.109,4.292,4.292,0,0,0,3.371-.58c2.186-1.43,2.032-3.632,1.882-5.761a11,11,0,0,1,.075-3.149c.548-2.372,2.5-6.87,5.957-6.922h.121c4.838,0,6.762,4.4,6.936,8.188.21,4.557-1.607,8.79-5.717,13.32a6.789,6.789,0,0,0,.009,9.2,6.255,6.255,0,0,0,8.547,1.1,6.8,6.8,0,0,0,2.509-7.873l-.313-1.031c-1.243-4.087-2.226-7.315-1.174-11.886,1.441-6.256,5.993-7.545,12.383-7.557a33.919,33.919,0,0,0,4.066-.344c2.9-.361,5.895-.732,8.508.408,3.724,1.625,5.889,7.206,6.036,11.632a17.42,17.42,0,0,1-.577,4.124c-.552,2.537-1.123,5.161.192,7.336a6.054,6.054,0,0,0,5.95,3.227,7.646,7.646,0,0,0,6.211-4.962,6.194,6.194,0,0,0-1.832-6.692,15.62,15.62,0,0,0-1.932-1.526,13.009,13.009,0,0,1-2.081-1.694,15.761,15.761,0,0,1-4.228-12.184,7.518,7.518,0,0,1,5.484-6.3c2.855-.624,3.872.009,5.3,2.108a10.663,10.663,0,0,1,1.667,5.348c.08.675.162,1.372.3,2.12a4.453,4.453,0,0,0,2.2,3.052,4.35,4.35,0,0,0,3.663.349,4.061,4.061,0,0,0,2.822-3.784,4.9,4.9,0,0,0-3.043-4.566c-2.537-1.05-5.564-3.422-6.214-6.145a4.43,4.43,0,0,1,1.1-4.073,7.673,7.673,0,0,1,7.447-2.21c3.775,1.11,7.462,4.126,10.382,8.49a19.021,19.021,0,0,1,1.862,4.226c.857,2.451,1.743,4.987,3.874,6.386a6.7,6.7,0,0,0,8.8-9.911,6.182,6.182,0,0,0-.811-.8c-1.568-1.277-3.6-1.632-5.573-1.976a17.071,17.071,0,0,1-3.858-.982,21.519,21.519,0,0,1-6.28-4.31c-1.621-1.577-6.681-7.149-3.762-12.673.418-.792.852-1.574,1.284-2.357.826-1.492,1.68-3.034,2.41-4.611.27-.582.518-1.176.767-1.771a16.894,16.894,0,0,1,2.713-4.889c2.463-2.757,5.867-2.524,8.555-2.012,4.542.864,6.968,2.931,10.326,5.79a6.981,6.981,0,0,0,6.821,1.274,6.441,6.441,0,0,0,4.271-4.991A6.586,6.586,0,0,0,736.9,160.246Zm-31.082-2.6c-.766.1-1.511-.771-1.664-1.945s.344-2.207,1.109-2.307,1.51.771,1.663,1.945S706.581,157.543,705.816,157.643Zm-5.854-21.9c-2.181-.882-3.64-3.843-4.341-5.936-.551-1.647-1.211-5.168.847-6.094,2.139-.963,4.355,2.007,5.26,3.554a11.576,11.576,0,0,1,1.585,5.332,3.533,3.533,0,0,1-1.474,3.06A2.06,2.06,0,0,1,699.962,135.746ZM672.6,193.534a3.011,3.011,0,0,1-.256-.594,3.889,3.889,0,0,1,.221-2.634,12.692,12.692,0,0,1,4.691-5.279c2.088-1.42,4.77-2.659,7.352-2.374,2.246.248,3.091,2.011,2.44,4.03-.937,2.906-3.416,5.087-6.06,6.451C678.993,194.162,674.12,196.215,672.6,193.534Zm-26.051-82.679c3.576-1.369,11.043-1.31,11.837,3.7,1.09,6.872-10.373,8.523-14.583,5.9a4.833,4.833,0,0,1-2.36-3.492,4.77,4.77,0,0,1,1.134-3.368A9.5,9.5,0,0,1,646.547,110.855Zm5.384-11.891c1.213-.158,2.279.344,2.38,1.122s-.8,1.536-2.013,1.694-2.279-.344-2.38-1.121S650.718,99.122,651.931,98.964Zm2.908,58.143a7.985,7.985,0,0,1,4.936,3.694c1.991,3.717-.176,7.887-3.826,9.493-3.982,1.753-9.755-.262-11.076-4.647a6.873,6.873,0,0,1-.262-2.641,6.629,6.629,0,0,1,2.425-4.54A8.776,8.776,0,0,1,654.839,157.107Zm-4.087-27.718a2.735,2.735,0,1,1-2.3,3.457A2.956,2.956,0,0,1,650.752,129.389Zm-7.942,66.536c.507-2.962,5.535-3.092,7.724-2.871,2.122.215,5.692,1.075,6.827,3.1,2.194,3.9-5.532,4.665-7.59,4.457a10.325,10.325,0,0,1-6.07-2.366,2.79,2.79,0,0,1-.911-2.154C642.794,196.033,642.8,195.979,642.81,195.925ZM655.3,182.507c.047-1.708,1.787-3.045,3.886-2.987s3.763,1.489,3.715,3.2-1.787,3.045-3.886,2.987S655.251,184.214,655.3,182.507Zm12.76-52.707c3.092-1.392,6.946.475,8.608,4.168s.5,7.816-2.589,9.207-6.946-.474-8.608-4.168S664.966,131.191,668.058,129.8Zm3.973-29.117a15.613,15.613,0,0,1,7.314,3.66c1.339,1.212,3.183,3.394,2.244,5.339-1.122,2.323-4.757,1.818-6.752,1.32-2.918-.727-10.88-4.658-8.855-8.854C667,100.04,670.15,100.3,672.031,100.683Zm12.514,22.7c-.79,1.02-2.555.976-3.941-.1s-1.868-2.771-1.078-3.791,2.555-.976,3.941.1S685.336,122.362,684.545,123.382Zm-15.068,32.554a2.458,2.458,0,1,1,.054,3.712A2.638,2.638,0,0,1,669.477,155.936Zm17.17,12.041c-2.021-.571-3.135-2.759-3.436-4.7-.622-4.018,1.631-11.189,6.6-11.426,6.924-.329,5,10.471,2.4,13.719C690.934,167.153,688.744,168.569,686.647,167.977Zm7.063,8.232a1.721,1.721,0,1,1,.231,2.707A1.953,1.953,0,0,1,693.71,176.209Zm-63.845-71.643a2.713,2.713,0,0,1,2.2.938c1.3,1.947-2.551,6.269-4.07,7.3-1.784,1.213-5.417,3.078-7.544,1.627a2.719,2.719,0,0,1-.816-3.031c.6-1.948,2.506-3.685,4.141-4.8A10.1,10.1,0,0,1,629.865,104.566Zm-11.142,21.78c.9.436,1.107,1.888.453,3.241s-1.916,2.1-2.82,1.661-1.107-1.888-.454-3.242S617.819,125.91,618.723,126.346Zm-.376,42.526a4.861,4.861,0,0,1,3.019-1.419c3.217-.3,6.394,1.565,8.561,3.79,3.8,3.9,4.743,9.139,2.113,11.7-1.843,1.794-4.828,1.585-7.049.686-4.227-1.711-8.225-6.187-8.191-10.944A5.448,5.448,0,0,1,618.347,168.872Zm12-12.07a1.778,1.778,0,1,1-.676,2.054A1.556,1.556,0,0,1,630.349,156.8Zm.224,37.048c.3-.62,1.394-.712,2.445-.2s1.659,1.421,1.359,2.042-1.394.712-2.444.2S630.274,194.47,630.573,193.85ZM626.982,141.1c-.571-4.934,4.781-11.088,9.939-8.341l.15.083c4.014,2.3,3.2,7.577.537,10.608C634.272,147.249,627.654,146.9,626.982,141.1Zm-21.7,26.686a1.781,1.781,0,1,1,2.551,1.253A2.05,2.05,0,0,1,605.28,167.788Zm-.835-11.535c-1.619-1.591-2.081-4.282-2.112-6.463-.029-2.114.455-5.644,2.3-7a2.555,2.555,0,0,1,1.343-.551c2.639-.158,3.836,5.669,3.861,7.442C609.864,151.883,608.131,159.875,604.445,156.253Z"/><path class="cls-8" d="M562.293,244.675a4.452,4.452,0,0,1-4.447-4.447V209.357h-7.821v30.871A12.282,12.282,0,0,0,562.293,252.5h30.871v-7.822Z"/><path class="cls-8" d="M743.731,54.343a4.452,4.452,0,0,1,4.447,4.447V89.661H756V58.79a12.283,12.283,0,0,0-12.269-12.269h-30.87v7.822Z"/><path class="cls-8" d="M557.846,58.79a4.452,4.452,0,0,1,4.447-4.447h30.871V46.521H562.293A12.282,12.282,0,0,0,550.025,58.79V89.661h7.821Z"/><path class="cls-8" d="M748.178,240.228a4.452,4.452,0,0,1-4.447,4.447h-30.87V252.5h30.87A12.283,12.283,0,0,0,756,240.228V209.357h-7.822Z"/><path class="cls-7" d="M215.5,152.723l12.6,3.808a23.245,23.245,0,0,1-4,8.855,17.36,17.36,0,0,1-6.776,5.364,25.353,25.353,0,0,1-10.3,1.809q-7.585,0-12.394-2.2a19.644,19.644,0,0,1-8.3-7.755q-3.492-5.55-3.491-14.209,0-11.546,6.141-17.746t17.377-6.2q8.792,0,13.822,3.555t7.474,10.918l-12.695,2.824a10.892,10.892,0,0,0-1.4-3.11,8.294,8.294,0,0,0-2.952-2.539,9.076,9.076,0,0,0-11.394,3.042q-1.968,2.918-1.968,9.161,0,7.736,2.349,10.6a8.05,8.05,0,0,0,6.6,2.869q4.127,0,6.237-2.317A14.327,14.327,0,0,0,215.5,152.723Z"/><path class="cls-7" d="M233.27,148.533q0-11.393,6.348-17.741t17.678-6.348q11.616,0,17.9,6.237t6.284,17.471q0,8.157-2.745,13.378a19.57,19.57,0,0,1-7.934,8.125,26.2,26.2,0,0,1-12.934,2.9q-7.871,0-13.028-2.507a19.611,19.611,0,0,1-8.363-7.935Q233.269,156.69,233.27,148.533Zm14.377.064q0,7.046,2.619,10.124a9.91,9.91,0,0,0,14.3.064q2.538-3.015,2.539-10.823,0-6.57-2.65-9.6a9.063,9.063,0,0,0-7.189-3.031,8.731,8.731,0,0,0-6.982,3.079Q247.647,141.487,247.647,148.6Z"/><path class="cls-7" d="M281.861,125.237h15.03l10.472,33.484L317.7,125.237h14.592l-17.276,46.529H299.434Z"/><path class="cls-7" d="M337.562,125.237h14.409v46.529H337.562Z"/><path class="cls-7" d="M362.477,125.237h21.359a25.593,25.593,0,0,1,10.2,1.714,16.6,16.6,0,0,1,6.427,4.92,20.368,20.368,0,0,1,3.682,7.458,34.6,34.6,0,0,1,1.143,9.014q0,7.458-1.7,11.568a19.165,19.165,0,0,1-4.714,6.888,15.373,15.373,0,0,1-6.474,3.7,33.334,33.334,0,0,1-8.57,1.27H362.477Zm14.377,10.537V161.2h3.523q4.506,0,6.411-1a6.775,6.775,0,0,0,2.983-3.491q1.08-2.492,1.08-8.078,0-7.393-2.413-10.124t-8-2.73Z"/><path class="cls-7" d="M409.513,149.8H428.3v10H409.513Z"/><path class="cls-7" d="M461.69,124.444v47.322H448.614V140.757a39.668,39.668,0,0,1-6.141,3.9,47.938,47.938,0,0,1-7.443,2.857v-10.6a31.44,31.44,0,0,0,10.252-5.11A20.856,20.856,0,0,0,451,124.444Z"/><path class="cls-7" d="M476.322,161.324l12.854-1.619a6.8,6.8,0,0,0,1.714,3.809,4.2,4.2,0,0,0,2.951,1.111,5.363,5.363,0,0,0,4.856-3.143q1.269-2.316,1.9-9.807a15.968,15.968,0,0,1-4.761,3.492,13.541,13.541,0,0,1-5.65,1.11,14.117,14.117,0,0,1-10.553-4.443,15.5,15.5,0,0,1-4.3-11.235,16.635,16.635,0,0,1,2.19-8.443,14.316,14.316,0,0,1,6.03-5.76,21.2,21.2,0,0,1,9.649-1.952q6.981,0,11.2,2.4a16.83,16.83,0,0,1,6.745,7.617q2.522,5.221,2.523,13.791,0,12.6-5.3,18.455t-14.694,5.856a24.127,24.127,0,0,1-8.76-1.286,13.535,13.535,0,0,1-5.332-3.76A17.056,17.056,0,0,1,476.322,161.324Zm23.8-20.757a8.6,8.6,0,0,0-1.9-5.92,5.976,5.976,0,0,0-4.634-2.142,5.439,5.439,0,0,0-4.268,1.936q-1.7,1.936-1.7,5.809a8.945,8.945,0,0,0,1.761,5.966,5.543,5.543,0,0,0,4.4,2.063,5.862,5.862,0,0,0,4.538-2A8.228,8.228,0,0,0,500.125,140.567Z"/><rect class="cls-6" y="0.5" width="12" height="299.5"/><circle class="cls-9" cx="104.336" cy="150.167" r="51.422" transform="translate(-75.625 117.76) rotate(-45)"/><path class="cls-7" d="M104.336,99.659a50.508,50.508,0,1,1-50.508,50.508,50.565,50.565,0,0,1,50.508-50.508m0-1.828a52.337,52.337,0,1,0,52.337,52.336,52.336,52.336,0,0,0-52.337-52.336Z"/><polygon class="cls-8" points="106.935 177.681 107.073 165.454 118.888 167.376 117.514 162.155 128.643 151.438 125.896 149.927 127.955 141.821 121.636 143.332 119.437 138.936 112.981 145.392 115.591 131.105 109.821 132.891 105.716 124.372 101.577 132.891 95.806 131.105 98.417 145.392 91.959 138.936 89.761 143.332 83.441 141.821 85.502 149.927 82.755 151.438 93.883 162.155 92.508 167.376 104.325 165.454 104.462 177.681 106.935 177.681"/></g></svg>